<svg xmlns="http://www.w3.org/2000/svg" viewBox="0 0 170.333 67.57">
  <defs>
    <style>
      .cls-1, .cls-2 {
        fill: #fff;
      }

      .cls-2 {
        font-size: 42px;
        font-family: BrandonText-Bold, Brandon Text;
        font-weight: 700;
      }
    </style>
  </defs>
  <g id="groupe-8" transform="translate(-36 -84.789)">
    <g id="groupe" transform="translate(36 84.789)">
      <path id="tracé" class="cls-1" d="M21.4,46.031l6.469-12.773L0,0"/>
      <path id="tracé-2" data-name="tracé" class="cls-1" d="M60.6.519c-5.64-1.41-11.446.912-13.27,7.962a10.967,10.967,0,0,0,7.962,13.27c5.889,1.493,12.026-2.571,13.436-8.46C70.222,7.4,66.49,1.929,60.6.519ZM55.127,2.841c.415-.332.829.332.829.332.083.166,2.9,4.313,9.289,3.9a.494.494,0,0,1,.581.415.487.487,0,0,1-.5.5C58.362,8.4,55.293,3.837,55.21,3.671,55.21,3.754,54.713,3.173,55.127,2.841ZM61.016,18.1c-6.967.415-10.036-4.147-10.119-4.313,0,0-.5-.581,0-.912.415-.332.829.332.829.332.083.166,2.9,4.313,9.289,3.9a.494.494,0,0,1,.581.415A.613.613,0,0,1,61.016,18.1Zm4.562-4.147c-10.118.581-14.6-6.055-14.763-6.3,0,0-.664-.829,0-1.327.664-.415,1.161.5,1.161.5.166.249,4.23,6.22,13.6,5.723a.736.736,0,0,1,.829.664A.754.754,0,0,1,65.578,13.955Z" transform="translate(-8.018 -0.022)"/>
      <text id="oxxr.in" class="cls-2" transform="translate(45.333 53.57)"><tspan x="0" y="0">oxxr.in</tspan></text>
    </g>
    <path id="tracé-3" data-name="tracé" class="cls-1" d="M48.869,25.723A12.04,12.04,0,0,1,43.312,20L28.8,49.194a7.62,7.62,0,0,0,4.064,9.787h0A7.591,7.591,0,0,0,42.9,55.332L57.08,26.8A11.859,11.859,0,0,1,48.869,25.723Zm-2.239,6.469L44.39,36.671a1.113,1.113,0,0,1-1.991-1L44.639,31.2a1.092,1.092,0,0,1,1.493-.5A1.051,1.051,0,0,1,46.629,32.192Z" transform="translate(31.172 81.377)"/>
  </g>
</svg>
